<svg width="308" height="64" viewBox="0 0 308 64" fill="none" xmlns="http://www.w3.org/2000/svg">
<rect width="307" height="64" transform="translate(0.160156)" fill="#101010"/>
<g clip-path="url(#clip0_82_4585)">
<path d="M274.199 23.4531V35.1829L267.299 23.4531H263.261L256.36 35.1829V23.4531H251.898V40.5469H258.379L265.28 28.8173L272.18 40.5469H278.661V23.4531H274.199Z" fill="#ED3237"/>
<path d="M249.76 27.9137V23.4531H227.484V40.5469H249.76V36.0861H231.941V33.86H249.76V29.3992H231.941V27.9137H249.76Z" fill="#ED3237"/>
<path d="M225.351 27.9137V23.4531H211.996V27.9137H216.449V36.0861H211.996V40.5469H225.351V36.0861H220.898V27.9137H225.351Z" fill="#ED3237"/>
<path d="M205.722 23.4531L201.327 36.0861H194.51L190.115 23.4531H185.285L191.23 40.5469H204.607L210.552 23.4531H205.722Z" fill="#ED3237"/>
<path d="M183.682 27.9137V23.4531H161.406V40.5469H183.682V36.0861H165.863V33.86H183.682V29.3992H165.863V27.9137H183.682Z" fill="#ED3237"/>
<path d="M159.267 28.6545C159.267 25.7851 156.936 23.4531 154.068 23.4531H135.496V40.5469H139.955V33.86H152.127L154.442 40.5469H159.267L156.704 33.1314C158.234 32.2278 159.267 30.5633 159.267 28.6545ZM139.955 27.9137H154.068C154.479 27.9137 154.812 28.2475 154.812 28.6545C154.812 29.0654 154.479 29.3992 154.068 29.3992H139.955V27.9137Z" fill="#ED3237"/>
<path d="M133.361 27.9137V23.4531H111.086V40.5469H133.361V36.0861H115.543V33.86H133.361V29.3992H115.543V27.9137H133.361Z" fill="#ED3237"/>
<path d="M100.939 23.4531H85.7109V40.5469H100.939C105.65 40.5469 109.482 36.713 109.482 31.9998C109.482 27.287 105.65 23.4531 100.939 23.4531ZM100.939 36.0861H90.1699V27.9137H100.939C103.192 27.9137 105.027 29.7451 105.027 31.9998C105.027 34.2547 103.192 36.0861 100.939 36.0861Z" fill="#ED3237"/>
<path d="M37.2035 27.9137H52.4313V23.4531H37.2035C32.4926 23.4531 28.6602 27.287 28.6602 31.9998C28.6602 36.713 32.4926 40.5469 37.2035 40.5469H52.4313V36.0861H37.2035C34.9496 36.0861 33.1189 34.2547 33.1189 31.9998C33.1189 29.7451 34.9496 27.9137 37.2035 27.9137Z" fill="#ED3237"/>
<path d="M68.8824 23.4531H62.5859C57.8686 23.4531 54.0312 27.287 54.0312 31.9998C54.0312 36.713 57.8686 40.5469 62.5859 40.5469H68.8824V36.0861H62.5859C60.329 36.0861 58.4959 34.2547 58.4959 31.9998C58.4959 29.7451 60.329 27.9137 62.5859 27.9137H68.8824V23.4531Z" fill="#ED3237"/>
<path fill-rule="evenodd" clip-rule="evenodd" d="M71.6519 27.8868H70.9102V27.0859H70.1094V23.4531H71.6519H73.7422H78.176V24.068H79.7778V24.6016H80.5787V25.6699V26.4708H81.3796V25.6699H81.9947V26.8184H82.7956V27.8868H83.4108V28.4218H82.6099V27.621H81.8091V26.8201H81.0082V27.621H81.8091V28.4218H82.6099V29.2227H81.8091V30.0235H82.6099V30.8244H83.4108V31.6252H82.6099V32.4261H81.8091V33.2269H82.6099V32.4261H83.4108V33.2269H84.2116V33.9765H83.4108V36.1132H82.7956V37.1816H81.9947V38.3301H80.5787V37.5292H81.3796V36.7284H80.5787V37.5292H79.7778V38.3301H80.5787V39.3984H79.7778V38.751H78.9771V39.5519H79.7778V39.932H78.176V40.5469H73.7422H72.3262H70.9102V39.7461H70.1094V36.1132H72.3262H73.7422H77.5877V35.0448H78.9771V33.9765H79.7778V34.7773H80.5787V33.9765H79.7778V32.3205V31.6795V30.0235H78.9771V28.9552H77.5877V27.8868H73.7422H71.6519ZM82.6099 30.0235H83.4108V29.2227H82.6099V30.0235ZM83.4108 30.8244H84.2116V30.0235H83.4108V30.8244ZM83.4108 32.4261H84.2116V32.3205V31.6795V31.6252H83.4108V32.4261ZM78.176 36.1132H78.9768V36.9141H78.176V36.1132ZM81.8091 35.3124H81.0082V36.1132H81.8091V35.3124H82.6099V34.5115H81.8091V33.7107H81.0082V34.5115H81.8091V35.3124ZM80.2074 27.6193H79.4065V26.8201H78.6056V26.0193H79.4065V26.8184H80.2074V27.6193ZM81.8091 30.8244H81.0082V31.6252H81.8091V30.8244ZM77.4044 38.032H76.6035V37.2312H77.4044V38.032H78.2053V38.8329H77.4044V38.032ZM80.2074 29.2227H81.0082V28.4218H80.2074V29.2227Z" fill="#ED3237"/>
</g>
<defs>
<clipPath id="clip0_82_4585">
<rect width="250" height="17.0939" fill="white" transform="translate(28.6602 23.4531)"/>
</clipPath>
</defs>
</svg>
