<svg xmlns="http://www.w3.org/2000/svg" width="17" height="17" viewBox="0 0 17 17" fill="none">
  <path d="M12.1626 6.38478C12.0377 6.26061 11.8687 6.19092 11.6926 6.19092C11.5164 6.19092 11.3475 6.26061 11.2226 6.38478L8.82923 8.74478L6.46923 6.38478C6.34432 6.26061 6.17535 6.19092 5.99923 6.19092C5.82311 6.19092 5.65414 6.26061 5.52923 6.38478C5.46674 6.44675 5.41715 6.52049 5.3833 6.60173C5.34946 6.68297 5.33203 6.77011 5.33203 6.85811C5.33203 6.94612 5.34946 7.03326 5.3833 7.1145C5.41715 7.19574 5.46674 7.26947 5.52923 7.33145L8.3559 10.1581C8.41787 10.2206 8.49161 10.2702 8.57285 10.304C8.65408 10.3379 8.74122 10.3553 8.82923 10.3553C8.91724 10.3553 9.00437 10.3379 9.08561 10.304C9.16685 10.2702 9.24059 10.2206 9.30256 10.1581L12.1626 7.33145C12.225 7.26947 12.2746 7.19574 12.3085 7.1145C12.3423 7.03326 12.3598 6.94612 12.3598 6.85811C12.3598 6.77011 12.3423 6.68297 12.3085 6.60173C12.2746 6.52049 12.225 6.44675 12.1626 6.38478Z" fill="#A4A4A4"/>
</svg>