<svg xmlns="http://www.w3.org/2000/svg" width="17" height="17" viewBox="0 0 17 17" fill="none">
  <path d="M11.8188 9.75433L8.95881 6.92767C8.89684 6.86518 8.8231 6.81559 8.74186 6.78174C8.66062 6.74789 8.57349 6.73047 8.48548 6.73047C8.39747 6.73047 8.31033 6.74789 8.2291 6.78174C8.14786 6.81559 8.07412 6.86518 8.01215 6.92767L5.18548 9.75433C5.12299 9.81631 5.0734 9.89004 5.03955 9.97128C5.00571 10.0525 4.98828 10.1397 4.98828 10.2277C4.98828 10.3157 5.00571 10.4028 5.03955 10.4841C5.0734 10.5653 5.12299 10.639 5.18548 10.701C5.31039 10.8252 5.47936 10.8949 5.65548 10.8949C5.8316 10.8949 6.00057 10.8252 6.12548 10.701L8.48548 8.341L10.8455 10.701C10.9697 10.8242 11.1373 10.8936 11.3121 10.8943C11.3999 10.8948 11.4869 10.878 11.5681 10.8448C11.6493 10.8117 11.7232 10.7628 11.7855 10.701C11.8502 10.6413 11.9024 10.5693 11.9392 10.4892C11.9759 10.4092 11.9964 10.3226 11.9995 10.2346C12.0026 10.1466 11.9882 10.0588 11.9572 9.97639C11.9262 9.89396 11.8792 9.81848 11.8188 9.75433Z" fill="#F7F7F7"/>
</svg>