<svg xmlns="http://www.w3.org/2000/svg" width="17" height="16" viewBox="0 0 17 16" fill="none">
  <path d="M11.1873 7.52661L7.41397 3.75994C7.35199 3.69746 7.27826 3.64786 7.19702 3.61402C7.11578 3.58017 7.02864 3.56274 6.94063 3.56274C6.85262 3.56274 6.76549 3.58017 6.68425 3.61402C6.60301 3.64786 6.52927 3.69746 6.4673 3.75994C6.34313 3.88485 6.27344 4.05382 6.27344 4.22994C6.27344 4.40607 6.34313 4.57503 6.4673 4.69994L9.7673 8.03328L6.4673 11.3333C6.34313 11.4582 6.27344 11.6272 6.27344 11.8033C6.27344 11.9794 6.34313 12.1484 6.4673 12.2733C6.52904 12.3363 6.60267 12.3864 6.68392 12.4207C6.76517 12.455 6.85243 12.4729 6.94063 12.4733C7.02884 12.4729 7.11609 12.455 7.19734 12.4207C7.27859 12.3864 7.35222 12.3363 7.41397 12.2733L11.1873 8.50661C11.255 8.44418 11.309 8.36841 11.3459 8.28408C11.3829 8.19975 11.4019 8.10868 11.4019 8.01661C11.4019 7.92454 11.3829 7.83347 11.3459 7.74914C11.309 7.66481 11.255 7.58904 11.1873 7.52661Z" fill="#F7F7F7"/>
</svg>