<svg xmlns="http://www.w3.org/2000/svg" width="17" height="17" viewBox="0 0 17 17" fill="none">
  <path d="M10.2964 6.67437L7.43641 9.54104L6.33641 8.44104C6.27664 8.37125 6.2031 8.31457 6.12039 8.27455C6.03768 8.23454 5.94759 8.21205 5.85578 8.20851C5.76397 8.20496 5.67241 8.22043 5.58686 8.25395C5.50131 8.28746 5.42361 8.3383 5.35864 8.40327C5.29367 8.46824 5.24283 8.54594 5.20932 8.63149C5.1758 8.71704 5.16033 8.80859 5.16388 8.90041C5.16742 8.99222 5.18991 9.08231 5.22993 9.16502C5.26994 9.24773 5.32662 9.32127 5.39641 9.38104L6.96308 10.9544C7.02537 11.0162 7.09925 11.065 7.18047 11.0982C7.2617 11.1314 7.34867 11.1482 7.43641 11.1477C7.6113 11.147 7.7789 11.0775 7.90308 10.9544L11.2364 7.62104C11.2989 7.55906 11.3485 7.48533 11.3823 7.40409C11.4162 7.32285 11.4336 7.23571 11.4336 7.14771C11.4336 7.0597 11.4162 6.97256 11.3823 6.89132C11.3485 6.81008 11.2989 6.73635 11.2364 6.67437C11.1115 6.5502 10.9425 6.48051 10.7664 6.48051C10.5903 6.48051 10.4213 6.5502 10.2964 6.67437ZM8.48308 2.14771C7.16453 2.14771 5.8756 2.5387 4.77927 3.27124C3.68295 4.00378 2.82846 5.04497 2.32388 6.26315C1.81929 7.48132 1.68727 8.82177 1.94451 10.115C2.20174 11.4082 2.83668 12.5961 3.76903 13.5284C4.70138 14.4608 5.88927 15.0957 7.18247 15.3529C8.47568 15.6102 9.81613 15.4782 11.0343 14.9736C12.2525 14.469 13.2937 13.6145 14.0262 12.5182C14.7587 11.4218 15.1497 10.1329 15.1497 8.81437C15.1497 7.93889 14.9773 7.07199 14.6423 6.26315C14.3072 5.45431 13.8162 4.71938 13.1971 4.10033C12.5781 3.48127 11.8431 2.99021 11.0343 2.65517C10.2255 2.32014 9.35856 2.14771 8.48308 2.14771ZM8.48308 14.1477C7.42824 14.1477 6.3971 13.8349 5.52003 13.2489C4.64297 12.6628 3.95939 11.8299 3.55572 10.8554C3.15205 9.88081 3.04643 8.80846 3.25222 7.77389C3.45801 6.73933 3.96596 5.78902 4.71184 5.04314C5.45772 4.29726 6.40803 3.7893 7.44259 3.58352C8.47716 3.37773 9.54952 3.48335 10.5241 3.88701C11.4986 4.29068 12.3315 4.97427 12.9176 5.85133C13.5036 6.72839 13.8164 7.75954 13.8164 8.81437C13.8164 10.2289 13.2545 11.5854 12.2543 12.5856C11.2541 13.5858 9.89756 14.1477 8.48308 14.1477Z" fill="#ED3237"/>
</svg>