<svg xmlns="http://www.w3.org/2000/svg" width="81" height="81" viewBox="0 0 81 81" fill="none !important">
  <rect x="0.160156" y="0.110596" width="80" height="80" rx="40" fill="#060606"/>
  <path fill-rule="evenodd" clip-rule="evenodd" d="M20.3602 62.1106H18.1602V59.9106H20.3602H22.5602H24.7602H26.9602H29.1602H31.3602H33.5602H35.7602H37.9602H40.1602H42.3602H44.5602H46.7602H48.9602H51.1602H53.3602H55.5602H57.7602H59.9602H62.1602V62.1106H59.9602H57.7602H55.5602H53.3602H51.1602H48.9602H46.7602H44.5602H42.3602H40.1602H37.9602H35.7602H33.5602H31.3602H29.1602H26.9602H24.7602H22.5602H20.3602ZM18.1602 20.3106V22.5106V24.7106V26.9106V29.1106V31.3106V33.5106V35.7106V37.9106V40.1106V42.3106V44.5106H20.3602H22.5602H24.7602H26.9602H29.1602H31.3602H33.5602H35.7602H37.9602H40.1602H42.3602H44.5602H46.7602H48.9602H51.1602H53.3602H55.5602H57.7602H59.9602H62.1602V42.3106V40.1106V37.9106V35.7106V33.5106V31.3106V29.1106V26.9106V24.7106V22.5106V20.3106V18.1106H59.9602H57.7602H55.5602H53.3602H51.1602H48.9602H46.7602H44.5602H42.3602H40.1602H37.9602H35.7602H33.5602H31.3602H29.1602H26.9602H24.7602H22.5602H20.3602H18.1602V20.3106ZM20.3602 22.5106V20.3106H22.5602H24.7602H26.9602H29.1602H31.3602H33.5602H35.7602H37.9602H40.1602H42.3602H44.5602H46.7602H48.9602H51.1602H53.3602H55.5602H57.7602H59.9602V22.5106V24.7106V26.9106V29.1106V31.3106V33.5106V35.7106V37.9106V40.1106V41.2106H57.7602H55.5602H53.3602H51.1602H48.9602H46.7602H44.5602H42.3602H40.1602H37.9602H35.7602H33.5602H31.3602H29.1602H26.9602H24.7602H22.5602H20.3602V40.1106V37.9106V35.7106V33.5106V31.3106V29.1106V26.9106V24.7106V22.5106ZM18.1602 48.9106V46.7106H20.3602H22.5602V48.9106H24.7602V51.1106H26.9602V53.3106H29.1602V55.5106H31.3602H32.4602H47.8602H48.9602H51.1602V53.3106H53.3602V51.1106H55.5602V48.9106H57.7602V46.7106H59.9602H62.1602V48.9106V51.1106V53.3106V55.5106V57.7106V58.8106H59.9602H57.7602H55.5602H53.3602H51.1602H48.9602H47.8602H46.7602V57.7106H47.8602V55.5106V53.3106V51.1106H50.0602H52.2602V48.9106H54.4602V46.7106H52.2602V48.9106H50.0602V51.1106V53.3106H47.8602H45.6602V51.1106H47.8602V48.9106H50.0602V46.7106H47.8602V48.9106H45.6602H43.4602H41.2602H39.0602H36.8602V46.7106H34.6602V48.9106V51.1106V53.3106H32.4602H30.2602V51.1106H32.4602H34.6602H36.8602H39.0602H41.2602H43.4602V53.3106H41.2602V51.1106V48.9106V46.7106H39.0602V48.9106V51.1106V53.3106H36.8602V51.1106V48.9106H34.6602H32.4602V46.7106H30.2602V48.9106H32.4602V51.1106V53.3106V55.5106V57.7106H33.5602V58.8106H32.4602H31.3602H29.1602H26.9602H24.7602H22.5602H20.3602H18.1602V57.7106V55.5106V53.3106V51.1106V48.9106ZM30.2602 51.1106V48.9106H28.0602V46.7106H25.8602V48.9106H28.0602V51.1106H30.2602ZM43.4602 48.9106V51.1106H45.6602V48.9106V46.7106H43.4602V48.9106ZM22.5602 24.7106H24.7602V22.5106H22.5602V24.7106ZM22.5602 29.1106H24.7602V26.9106H22.5602V29.1106ZM26.9602 24.7106H29.1602V22.5106H26.9602V24.7106ZM26.9602 29.1106H29.1602V26.9106H26.9602V29.1106ZM22.5602 33.5106H24.7602V31.3106H22.5602V33.5106Z" fill="#ED3237"/>
</svg>