<svg xmlns="http://www.w3.org/2000/svg" width="17" height="17" viewBox="0 0 17 17" fill="none">
  <path d="M8.48308 2.14771C7.16453 2.14771 5.8756 2.5387 4.77927 3.27124C3.68295 4.00378 2.82846 5.04497 2.32388 6.26315C1.81929 7.48132 1.68727 8.82177 1.94451 10.115C2.20174 11.4082 2.83668 12.5961 3.76903 13.5284C4.70138 14.4608 5.88927 15.0957 7.18247 15.3529C8.47568 15.6102 9.81613 15.4782 11.0343 14.9736C12.2525 14.469 13.2937 13.6145 14.0262 12.5182C14.7587 11.4218 15.1497 10.1329 15.1497 8.81437C15.1497 7.93889 14.9773 7.07199 14.6423 6.26315C14.3072 5.45431 13.8162 4.71938 13.1971 4.10033C12.5781 3.48127 11.8431 2.99021 11.0343 2.65517C10.2255 2.32014 9.35856 2.14771 8.48308 2.14771ZM8.48308 14.1477C7.42824 14.1477 6.3971 13.8349 5.52003 13.2489C4.64297 12.6628 3.95939 11.8299 3.55572 10.8554C3.15205 9.88081 3.04643 8.80846 3.25222 7.77389C3.45801 6.73933 3.96596 5.78902 4.71184 5.04314C5.45772 4.29726 6.40803 3.7893 7.44259 3.58352C8.47716 3.37773 9.54952 3.48335 10.5241 3.88701C11.4986 4.29068 12.3315 4.97427 12.9176 5.85133C13.5036 6.72839 13.8164 7.75954 13.8164 8.81437C13.8164 10.2289 13.2545 11.5854 12.2543 12.5856C11.2541 13.5858 9.89756 14.1477 8.48308 14.1477Z" fill="#A4A4A4"/>
</svg>