<svg xmlns="http://www.w3.org/2000/svg" width="17" height="17" viewBox="0 0 17 17" fill="none">
  <path d="M15.1009 6.03149C15.1009 6.03149 15.1009 6.03149 15.1009 5.99815C14.6312 4.71564 13.7789 3.60834 12.6593 2.82606C11.5396 2.04378 10.2068 1.62427 8.84094 1.62427C7.4751 1.62427 6.14223 2.04378 5.02261 2.82606C3.90299 3.60834 3.05067 4.71564 2.58094 5.99815C2.58094 5.99815 2.58094 5.99815 2.58094 6.03149C2.05635 7.47875 2.05635 9.06422 2.58094 10.5115C2.58094 10.5115 2.58094 10.5115 2.58094 10.5448C3.05067 11.8273 3.90299 12.9346 5.02261 13.7169C6.14223 14.4992 7.4751 14.9187 8.84094 14.9187C10.2068 14.9187 11.5396 14.4992 12.6593 13.7169C13.7789 12.9346 14.6312 11.8273 15.1009 10.5448C15.1009 10.5448 15.1009 10.5448 15.1009 10.5115C15.6255 9.06422 15.6255 7.47875 15.1009 6.03149ZM3.6676 9.60482C3.43642 8.73096 3.43642 7.81201 3.6676 6.93815H4.9076C4.80096 7.82384 4.80096 8.71913 4.9076 9.60482H3.6676ZM4.21427 10.9382H5.1476C5.30408 11.5327 5.52775 12.1075 5.81427 12.6515C5.16047 12.2061 4.61394 11.6209 4.21427 10.9382ZM5.1476 5.60482H4.21427C4.60818 4.92421 5.14773 4.33913 5.79427 3.89149C5.51464 4.43632 5.2977 5.0111 5.1476 5.60482ZM8.16094 13.4048C7.34211 12.8039 6.76704 11.9283 6.54094 10.9382H8.16094V13.4048ZM8.16094 9.60482H6.25427C6.12986 8.72028 6.12986 7.82269 6.25427 6.93815H8.16094V9.60482ZM8.16094 5.60482H6.54094C6.76704 4.61466 7.34211 3.73903 8.16094 3.13815V5.60482ZM13.4409 5.60482H12.5076C12.3511 5.01026 12.1275 4.43545 11.8409 3.89149C12.4947 4.33687 13.0413 4.92211 13.4409 5.60482ZM9.49427 3.13815C10.3131 3.73903 10.8882 4.61466 11.1143 5.60482H9.49427V3.13815ZM9.49427 13.4048V10.9382H11.1143C10.8882 11.9283 10.3131 12.8039 9.49427 13.4048ZM11.4009 9.60482H9.49427V6.93815H11.4009C11.5253 7.82269 11.5253 8.72028 11.4009 9.60482ZM11.8609 12.6515C12.1475 12.1075 12.3711 11.5327 12.5276 10.9382H13.4609C13.0613 11.6209 12.5147 12.2061 11.8609 12.6515ZM13.9876 9.60482H12.7476C12.8018 9.16246 12.8285 8.71716 12.8276 8.27149C12.8283 7.82582 12.8016 7.38053 12.7476 6.93815H13.9876C14.2188 7.81201 14.2188 8.73096 13.9876 9.60482Z" fill="#ED3237"/>
</svg>