<svg xmlns="http://www.w3.org/2000/svg" width="81" height="81" viewBox="0 0 81 81" fill="none">
  <rect x="0.160156" y="0.110596" width="80" height="80" rx="40" fill="#060606"/>
  <path d="M59.9617 18.1106H57.7617V20.3106H59.9617V18.1106Z" fill="#ED3237"/>
  <path d="M59.9617 20.3105H57.7617V22.5105H59.9617V20.3105Z" fill="#ED3237"/>
  <path d="M62.1609 20.3105H59.9609V22.5105H62.1609V20.3105Z" fill="#ED3237"/>
  <path d="M62.1617 22.5106H57.7617V26.9106H62.1617V22.5106Z" fill="#ED3237"/>
  <path d="M62.1617 26.9106H57.7617V31.3106H62.1617V26.9106Z" fill="#ED3237"/>
  <path d="M59.9617 31.3105H57.7617V33.5105H59.9617V31.3105Z" fill="#ED3237"/>
  <path d="M59.9617 33.5106H57.7617V35.7106H59.9617V33.5106Z" fill="#ED3237"/>
  <path d="M57.7586 33.5106H55.5586V35.7106H57.7586V33.5106Z" fill="#ED3237"/>
  <path d="M55.5594 33.5106H53.3594V35.7106H55.5594V33.5106Z" fill="#ED3237"/>
  <path d="M53.3602 33.5106H51.1602V35.7106H53.3602V33.5106Z" fill="#ED3237"/>
  <path d="M51.1609 33.5106H48.9609V35.7106H51.1609V33.5106Z" fill="#ED3237"/>
  <path d="M44.5594 33.5106H42.3594V35.7106H44.5594V33.5106Z" fill="#ED3237"/>
  <path d="M42.3602 33.5106H40.1602V35.7106H42.3602V33.5106Z" fill="#ED3237"/>
  <path d="M40.1609 33.5106H37.9609V35.7106H40.1609V33.5106Z" fill="#ED3237"/>
  <path d="M37.9617 33.5106H35.7617V35.7106H37.9617V33.5106Z" fill="#ED3237"/>
  <path d="M35.7586 33.5106H33.5586V35.7106H35.7586V33.5106Z" fill="#ED3237"/>
  <path d="M59.9617 37.9106H57.7617V40.1106H59.9617V37.9106Z" fill="#ED3237"/>
  <path d="M57.7586 37.9106H55.5586V40.1106H57.7586V37.9106Z" fill="#ED3237"/>
  <path d="M55.5594 37.9106H53.3594V40.1106H55.5594V37.9106Z" fill="#ED3237"/>
  <path d="M53.3602 37.9106H51.1602V40.1106H53.3602V37.9106Z" fill="#ED3237"/>
  <path d="M51.1609 37.9106H48.9609V40.1106H51.1609V37.9106Z" fill="#ED3237"/>
  <path d="M48.9617 37.9106H46.7617V40.1106H48.9617V37.9106Z" fill="#ED3237"/>
  <path d="M46.7586 37.9106H44.5586V40.1106H46.7586V37.9106Z" fill="#ED3237"/>
  <path d="M44.5594 37.9106H42.3594V40.1106H44.5594V37.9106Z" fill="#ED3237"/>
  <path d="M42.3602 37.9106H40.1602V40.1106H42.3602V37.9106Z" fill="#ED3237"/>
  <path d="M40.1609 37.9106H37.9609V40.1106H40.1609V37.9106Z" fill="#ED3237"/>
  <path d="M37.9617 37.9106H35.7617V40.1106H37.9617V37.9106Z" fill="#ED3237"/>
  <path d="M35.7586 37.9106H33.5586V40.1106H35.7586V37.9106Z" fill="#ED3237"/>
  <path d="M33.5594 37.9106H31.3594V40.1106H33.5594V37.9106Z" fill="#ED3237"/>
  <path d="M31.3602 37.9106H29.1602V40.1106H31.3602V37.9106Z" fill="#ED3237"/>
  <path d="M29.1609 37.9106H26.9609V40.1106H29.1609V37.9106Z" fill="#ED3237"/>
  <path d="M26.9617 37.9106H24.7617V40.1106H26.9617V37.9106Z" fill="#ED3237"/>
  <path d="M57.7586 29.1106H55.5586V31.3106H57.7586V29.1106Z" fill="#ED3237"/>
  <path d="M55.5594 26.9106H53.3594V29.1106H55.5594V26.9106Z" fill="#ED3237"/>
  <path d="M55.5594 24.7106H53.3594V26.9106H55.5594V24.7106Z" fill="#ED3237"/>
  <path d="M57.7586 24.7106H55.5586V26.9106H57.7586V24.7106Z" fill="#ED3237"/>
  <path d="M57.7586 22.5106H55.5586V24.7106H57.7586V22.5106Z" fill="#ED3237"/>
  <path d="M57.7586 18.1106H55.5586V20.3106H57.7586V18.1106Z" fill="#ED3237"/>
  <path d="M55.5594 20.3105H53.3594V22.5105H55.5594V20.3105Z" fill="#ED3237"/>
  <path d="M55.5594 18.1106H53.3594V20.3106H55.5594V18.1106Z" fill="#ED3237"/>
  <path d="M53.3609 18.1106H48.9609V22.5106H53.3609V18.1106Z" fill="#ED3237"/>
  <path d="M48.9586 18.1106H44.5586V22.5106H48.9586V18.1106Z" fill="#ED3237"/>
  <path d="M44.5602 18.1106H40.1602V22.5106H44.5602V18.1106Z" fill="#ED3237"/>
  <path d="M40.1617 18.1106H35.7617V22.5106H40.1617V18.1106Z" fill="#ED3237"/>
  <path d="M33.5594 18.1106H31.3594V20.3106H33.5594V18.1106Z" fill="#ED3237"/>
  <path d="M35.7586 20.3105H33.5586V22.5105H35.7586V20.3105Z" fill="#ED3237"/>
  <path d="M35.7586 18.1106H33.5586V20.3106H35.7586V18.1106Z" fill="#ED3237"/>
  <path d="M35.7586 24.7106H33.5586V26.9106H35.7586V24.7106Z" fill="#ED3237"/>
  <path d="M33.5594 24.7106H31.3594V26.9106H33.5594V24.7106Z" fill="#ED3237"/>
  <path d="M33.5594 22.5106H31.3594V24.7106H33.5594V22.5106Z" fill="#ED3237"/>
  <path d="M37.9617 24.7106H35.7617V26.9106H37.9617V24.7106Z" fill="#ED3237"/>
  <path d="M40.1609 24.7106H37.9609V26.9106H40.1609V24.7106Z" fill="#ED3237"/>
  <path d="M42.3602 24.7106H40.1602V26.9106H42.3602V24.7106Z" fill="#ED3237"/>
  <path d="M44.5594 24.7106H42.3594V26.9106H44.5594V24.7106Z" fill="#ED3237"/>
  <path d="M46.7586 24.7106H44.5586V26.9106H46.7586V24.7106Z" fill="#ED3237"/>
  <path d="M48.9617 24.7106H46.7617V26.9106H48.9617V24.7106Z" fill="#ED3237"/>
  <path d="M51.1609 24.7106H48.9609V26.9106H51.1609V24.7106Z" fill="#ED3237"/>
  <path d="M53.3602 24.7106H51.1602V26.9106H53.3602V24.7106Z" fill="#ED3237"/>
  <path d="M31.3609 22.5106H26.9609V26.9106H31.3609V22.5106Z" fill="#ED3237"/>
  <path d="M31.3609 26.9106H26.9609V31.3106H31.3609V26.9106Z" fill="#ED3237"/>
  <path d="M35.7594 26.9106H31.3594V31.3106H35.7594V26.9106Z" fill="#ED3237"/>
  <path d="M40.1617 26.9106H35.7617V31.3106H40.1617V26.9106Z" fill="#ED3237"/>
  <path d="M44.5602 26.9106H40.1602V31.3106H44.5602V26.9106Z" fill="#ED3237"/>
  <path d="M59.9617 40.1106H57.7617V42.3106H59.9617V40.1106Z" fill="#ED3237"/>
  <path d="M59.9617 42.3105H57.7617V44.5105H59.9617V42.3105Z" fill="#ED3237"/>
  <path d="M26.9586 26.9106H22.5586V31.3106H26.9586V26.9106Z" fill="#ED3237"/>
  <path d="M31.3602 18.1106H29.1602V20.3106H31.3602V18.1106Z" fill="#ED3237"/>
  <path d="M31.3602 20.3105H29.1602V22.5105H31.3602V20.3105Z" fill="#ED3237"/>
  <path d="M29.1609 20.3105H26.9609V22.5105H29.1609V20.3105Z" fill="#ED3237"/>
  <path d="M26.9617 22.5106H24.7617V24.7106H26.9617V22.5106Z" fill="#ED3237"/>
  <path d="M24.7586 24.7106H22.5586V26.9106H24.7586V24.7106Z" fill="#ED3237"/>
  <path d="M26.9617 24.7106H24.7617V26.9106H26.9617V24.7106Z" fill="#ED3237"/>
  <path d="M33.5594 40.1106H31.3594V42.3106H33.5594V40.1106Z" fill="#ED3237"/>
  <path d="M33.5594 42.3105H31.3594V44.5105H33.5594V42.3105Z" fill="#ED3237"/>
  <path d="M35.7586 44.5106H33.5586V46.7106H35.7586V44.5106Z" fill="#ED3237"/>
  <path d="M37.9617 44.5106H35.7617V46.7106H37.9617V44.5106Z" fill="#ED3237"/>
  <path d="M40.1609 44.5106H37.9609V46.7106H40.1609V44.5106Z" fill="#ED3237"/>
  <path d="M42.3602 44.5106H40.1602V46.7106H42.3602V44.5106Z" fill="#ED3237"/>
  <path d="M44.5594 42.3105H42.3594V44.5105H44.5594V42.3105Z" fill="#ED3237"/>
  <path d="M44.5594 40.1106H42.3594V42.3106H44.5594V40.1106Z" fill="#ED3237"/>
  <path d="M40.1609 40.1106H37.9609V42.3106H40.1609V40.1106Z" fill="#ED3237"/>
  <path d="M55.5594 40.1106H53.3594V42.3106H55.5594V40.1106Z" fill="#ED3237"/>
  <path d="M57.7586 44.5106H55.5586V46.7106H57.7586V44.5106Z" fill="#ED3237"/>
  <path d="M55.5594 44.5106H53.3594V46.7106H55.5594V44.5106Z" fill="#ED3237"/>
  <path d="M53.3602 44.5106H51.1602V46.7106H53.3602V44.5106Z" fill="#ED3237"/>
  <path d="M51.1609 42.3105H48.9609V44.5105H51.1609V42.3105Z" fill="#ED3237"/>
  <path d="M48.9617 40.1106H46.7617V42.3106H48.9617V40.1106Z" fill="#ED3237"/>
  <path d="M51.1609 40.1106H48.9609V42.3106H51.1609V40.1106Z" fill="#ED3237"/>
  <path d="M51.1609 48.9106H48.9609V51.1106H51.1609V48.9106Z" fill="#ED3237"/>
  <path d="M51.1609 53.3105H48.9609V55.5105H51.1609V53.3105Z" fill="#ED3237"/>
  <path d="M48.9617 53.3105H46.7617V55.5105H48.9617V53.3105Z" fill="#ED3237"/>
  <path d="M46.7586 53.3105H44.5586V55.5105H46.7586V53.3105Z" fill="#ED3237"/>
  <path d="M44.5594 53.3105H42.3594V55.5105H44.5594V53.3105Z" fill="#ED3237"/>
  <path d="M46.7586 56.6106H44.5586V57.7106H46.7586V56.6106Z" fill="#ED3237"/>
  <path d="M29.1609 35.7106H26.9609V37.9106H29.1609V35.7106Z" fill="#ED3237"/>
  <path d="M29.1609 33.5106H26.9609V35.7106H29.1609V33.5106Z" fill="#ED3237"/>
  <path d="M29.1609 31.3105H26.9609V33.5105H29.1609V31.3105Z" fill="#ED3237"/>
  <path d="M31.3602 31.3105H29.1602V33.5105H31.3602V31.3105Z" fill="#ED3237"/>
  <path d="M46.7586 26.9106H44.5586V29.1106H46.7586V26.9106Z" fill="#ED3237"/>
  <path d="M48.9617 26.9106H46.7617V29.1106H48.9617V26.9106Z" fill="#ED3237"/>
  <path d="M46.7586 29.1106H44.5586V31.3106H46.7586V29.1106Z" fill="#ED3237"/>
  <path d="M59.9617 35.7106H57.7617V37.9106H59.9617V35.7106Z" fill="#ED3237"/>
  <path d="M59.9617 44.5106H57.7617V46.7106H59.9617V44.5106Z" fill="#ED3237"/>
  <path d="M59.9617 46.7106H57.7617V48.9106H59.9617V46.7106Z" fill="#ED3237"/>
  <path d="M59.9617 48.9106H57.7617V51.1106H59.9617V48.9106Z" fill="#ED3237"/>
  <path d="M59.9617 51.1106H57.7617V53.3106H59.9617V51.1106Z" fill="#ED3237"/>
  <path d="M59.9617 53.3105H57.7617V55.5105H59.9617V53.3105Z" fill="#ED3237"/>
  <path d="M59.9617 55.5106H57.7617V57.7106H59.9617V55.5106Z" fill="#ED3237"/>
  <path d="M59.9617 57.7106H57.7617V59.9106H59.9617V57.7106Z" fill="#ED3237"/>
  <path d="M57.7586 59.9106H55.5586V62.1106H57.7586V59.9106Z" fill="#ED3237"/>
  <path d="M55.5594 59.9106H53.3594V62.1106H55.5594V59.9106Z" fill="#ED3237"/>
  <path d="M53.3602 59.9106H51.1602V62.1106H53.3602V59.9106Z" fill="#ED3237"/>
  <path d="M51.1609 59.9106H48.9609V62.1106H51.1609V59.9106Z" fill="#ED3237"/>
  <path d="M48.9617 59.9106H46.7617V62.1106H48.9617V59.9106Z" fill="#ED3237"/>
  <path d="M46.7586 59.9106H44.5586V62.1106H46.7586V59.9106Z" fill="#ED3237"/>
  <path d="M44.5594 59.9106H42.3594V62.1106H44.5594V59.9106Z" fill="#ED3237"/>
  <path d="M42.3602 59.9106H40.1602V62.1106H42.3602V59.9106Z" fill="#ED3237"/>
  <path d="M40.1609 59.9106H37.9609V62.1106H40.1609V59.9106Z" fill="#ED3237"/>
  <path d="M37.9617 59.9106H35.7617V62.1106H37.9617V59.9106Z" fill="#ED3237"/>
  <path d="M35.7586 59.9106H33.5586V62.1106H35.7586V59.9106Z" fill="#ED3237"/>
  <path d="M26.9617 31.3105H24.7617V33.5105H26.9617V31.3105Z" fill="#ED3237"/>
  <path d="M24.7586 31.3105H22.5586V33.5105H24.7586V31.3105Z" fill="#ED3237"/>
  <path d="M26.9617 35.7106H24.7617V37.9106H26.9617V35.7106Z" fill="#ED3237"/>
  <path d="M24.7586 35.7106H22.5586V37.9106H24.7586V35.7106Z" fill="#ED3237"/>
  <path d="M22.5594 35.7106H20.3594V37.9106H22.5594V35.7106Z" fill="#ED3237"/>
  <path d="M20.3602 37.9106H18.1602V40.1106H20.3602V37.9106Z" fill="#ED3237"/>
  <path d="M20.3602 40.1106H18.1602V42.3106H20.3602V40.1106Z" fill="#ED3237"/>
  <path d="M20.3602 42.3105H18.1602V44.5105H20.3602V42.3105Z" fill="#ED3237"/>
  <path d="M22.5594 44.5106H20.3594V46.7106H22.5594V44.5106Z" fill="#ED3237"/>
  <path d="M24.7586 46.7106H22.5586V48.9106H24.7586V46.7106Z" fill="#ED3237"/>
  <path d="M26.9617 46.7106H24.7617V48.9106H26.9617V46.7106Z" fill="#ED3237"/>
  <path d="M26.9617 48.9106H24.7617V51.1106H26.9617V48.9106Z" fill="#ED3237"/>
  <path d="M26.9617 51.1106H24.7617V53.3106H26.9617V51.1106Z" fill="#ED3237"/>
  <path d="M26.9617 53.3105H24.7617V55.5105H26.9617V53.3105Z" fill="#ED3237"/>
  <path d="M29.1609 55.5106H26.9609V57.7106H29.1609V55.5106Z" fill="#ED3237"/>
  <path d="M31.3602 57.7106H29.1602V59.9106H31.3602V57.7106Z" fill="#ED3237"/>
  <path d="M33.5594 59.9106H31.3594V62.1106H33.5594V59.9106Z" fill="#ED3237"/>
  <path d="M31.3602 59.9106H29.1602V62.1106H31.3602V59.9106Z" fill="#ED3237"/>
  <path d="M29.1609 57.7106H26.9609V59.9106H29.1609V57.7106Z" fill="#ED3237"/>
  <path d="M29.1609 53.3105H26.9609V55.5105H29.1609V53.3105Z" fill="#ED3237"/>
  <path d="M24.7586 40.1106H22.5586V42.3106H24.7586V40.1106Z" fill="#ED3237"/>
  <path d="M56.6586 40.1106H55.5586V42.3106H56.6586V40.1106Z" fill="#ED3237"/>
  <path d="M41.2602 40.1106H40.1602V42.3106H41.2602V40.1106Z" fill="#ED3237"/>
  <path d="M24.7602 42.3105H23.6602V43.4105H24.7602V42.3105Z" fill="#ED3237"/>
  <path d="M29.1609 40.1106H26.9609V42.3106H29.1609V40.1106Z" fill="#ED3237"/>
  <path d="M29.1609 42.3105H26.9609V44.5105H29.1609V42.3105Z" fill="#ED3237"/>
  <path d="M29.1609 44.5106H26.9609V45.6106H29.1609V44.5106Z" fill="#ED3237"/>
  <path d="M57.7586 26.9106H55.5586V29.1106H57.7586V26.9106Z" fill="#ED3237"/>
  <path d="M22.5609 40.1106H21.4609V41.2106H22.5609V40.1106Z" fill="#ED3237"/>
  <path d="M48.9617 48.9106H46.7617V51.1106H48.9617V48.9106Z" fill="#ED3237"/>
  <path d="M51.1609 44.5106H48.9609V46.7106H51.1609V44.5106Z" fill="#ED3237"/>
  <path d="M46.7586 48.9106H44.5586V51.1106H46.7586V48.9106Z" fill="#ED3237"/>
  <path d="M53.3602 46.7106H51.1602V48.9106H53.3602V46.7106Z" fill="#ED3237"/>
</svg>