<svg xmlns="http://www.w3.org/2000/svg" width="17" height="16" viewBox="0 0 17 16" fill="none">
  <path d="M13.1192 8.66668C12.9726 8.66668 12.8192 8.62001 12.6726 8.58668C12.3756 8.52123 12.0837 8.43434 11.7992 8.32668C11.49 8.21417 11.15 8.22001 10.8448 8.34309C10.5396 8.46616 10.2906 8.69777 10.1459 8.99335L9.99925 9.29335C9.34992 8.93213 8.75324 8.4835 8.22591 7.96001C7.70243 7.43269 7.2538 6.83601 6.89258 6.18668L7.17258 6.00001C7.46816 5.85529 7.69977 5.60637 7.82284 5.30114C7.94592 4.99592 7.95176 4.65596 7.83925 4.34668C7.7334 4.06163 7.64654 3.76988 7.57925 3.47335C7.54591 3.32668 7.51925 3.17335 7.49925 3.02001C7.41829 2.55043 7.17233 2.12518 6.80566 1.82084C6.43899 1.5165 5.97571 1.35309 5.49925 1.36001H3.49925C3.21193 1.35732 2.92741 1.41656 2.66505 1.5337C2.40269 1.65085 2.16865 1.82314 1.97887 2.03887C1.78908 2.25459 1.648 2.50868 1.56524 2.78382C1.48247 3.05897 1.45997 3.34872 1.49925 3.63335C1.85441 6.42627 3.12993 9.02127 5.12435 11.0084C7.11876 12.9956 9.71839 14.2617 12.5126 14.6067H12.7659C13.2575 14.6074 13.7322 14.427 14.0992 14.1C14.3102 13.9114 14.4786 13.6801 14.5936 13.4216C14.7085 13.163 14.7672 12.883 14.7659 12.6V10.6C14.7577 10.1369 14.5891 9.69105 14.2888 9.33846C13.9885 8.98587 13.5751 8.74843 13.1192 8.66668ZM13.4526 12.6667C13.4525 12.7613 13.4322 12.8549 13.3931 12.9411C13.354 13.0273 13.297 13.1042 13.2259 13.1667C13.1516 13.2314 13.0646 13.2796 12.9704 13.3083C12.8762 13.3371 12.777 13.3456 12.6792 13.3333C10.1825 13.0132 7.8634 11.871 6.08772 10.0869C4.31204 8.30274 3.18085 5.97824 2.87258 3.48001C2.86197 3.38236 2.87127 3.28357 2.89991 3.18961C2.92856 3.09565 2.97596 3.00847 3.03925 2.93335C3.10172 2.86223 3.17862 2.80524 3.26483 2.76616C3.35104 2.72708 3.44459 2.7068 3.53925 2.70668H5.53925C5.69428 2.70323 5.84566 2.75393 5.96734 2.85006C6.08902 2.94619 6.17339 3.08173 6.20591 3.23335C6.23258 3.41557 6.26591 3.59557 6.30591 3.77335C6.38293 4.12478 6.48542 4.47013 6.61258 4.80668L5.67925 5.24001C5.59944 5.27663 5.52766 5.32864 5.46802 5.39308C5.40838 5.45751 5.36205 5.53309 5.33169 5.61548C5.30134 5.69786 5.28756 5.78543 5.29115 5.87316C5.29473 5.96089 5.31561 6.04704 5.35258 6.12668C6.31205 8.18185 7.96408 9.83388 10.0192 10.7933C10.1816 10.86 10.3636 10.86 10.5259 10.7933C10.6091 10.7636 10.6855 10.7176 10.7507 10.6581C10.8159 10.5986 10.8687 10.5268 10.9059 10.4467L11.3192 9.51335C11.6639 9.6366 12.0156 9.73901 12.3726 9.82001C12.5504 9.86001 12.7304 9.89335 12.9126 9.92001C13.0642 9.95254 13.1997 10.0369 13.2959 10.1586C13.392 10.2803 13.4427 10.4317 13.4392 10.5867L13.4526 12.6667Z" fill="#ED3237"/>
</svg>